<svg width="100" height="100" viewBox="0 0 100 100" fill="none" xmlns="http://www.w3.org/2000/svg">
    <g clip-path="url(#clip0_4_429)">
        <path d="M50 8.33337C27 8.33337 8.33331 27 8.33331 50C8.33331 73 27 91.6667 50 91.6667C73 91.6667 91.6667 73 91.6667 50C91.6667 27 73 8.33337 50 8.33337ZM50 20.8334C56.9166 20.8334 62.5 26.4167 62.5 33.3334C62.5 40.25 56.9166 45.8334 50 45.8334C43.0833 45.8334 37.5 40.25 37.5 33.3334C37.5 26.4167 43.0833 20.8334 50 20.8334ZM50 80C39.5833 80 30.375 74.6667 25 66.5834C25.125 58.2917 41.6666 53.75 50 53.75C58.2916 53.75 74.875 58.2917 75 66.5834C69.625 74.6667 60.4166 80 50 80Z" fill="#7B7B7B"/>
    </g>
    <defs>
        <clipPath id="clip0_4_429">
            <rect width="100" height="100" fill="white"/>
        </clipPath>
    </defs>
</svg>
