<svg width="40" height="40" viewBox="0 0 40 40" fill="none" xmlns="http://www.w3.org/2000/svg">
    <circle cx="20" cy="20" r="20" fill="#E9AD13"/>
    <g clip-path="url(#clip0_4_511)">
        <path d="M25.3333 13.3334H14.6666C13.9333 13.3334 13.34 13.9334 13.34 14.6667L13.3333 26.6667L16 24H25.3333C26.0666 24 26.6666 23.4 26.6666 22.6667V14.6667C26.6666 13.9334 26.0666 13.3334 25.3333 13.3334ZM23.3333 21.3334H16.6666C16.3 21.3334 16 21.0334 16 20.6667C16 20.3 16.3 20 16.6666 20H23.3333C23.7 20 24 20.3 24 20.6667C24 21.0334 23.7 21.3334 23.3333 21.3334ZM23.3333 19.3334H16.6666C16.3 19.3334 16 19.0334 16 18.6667C16 18.3 16.3 18 16.6666 18H23.3333C23.7 18 24 18.3 24 18.6667C24 19.0334 23.7 19.3334 23.3333 19.3334ZM23.3333 17.3334H16.6666C16.3 17.3334 16 17.0334 16 16.6667C16 16.3 16.3 16 16.6666 16H23.3333C23.7 16 24 16.3 24 16.6667C24 17.0334 23.7 17.3334 23.3333 17.3334Z" fill="white"/>
    </g>
    <defs>
        <clipPath id="clip0_4_511">
            <rect width="16" height="16" fill="white" transform="translate(12 12)"/>
        </clipPath>
    </defs>
</svg>
